<?xml version="1.0" encoding="UTF-8"?>
<!DOCTYPE svg PUBLIC "-//W3C//DTD SVG 1.1//EN" "http://www.w3.org/Graphics/SVG/1.1/DTD/svg11.dtd">
<!-- Creator: CorelDRAW -->
<svg xmlns="http://www.w3.org/2000/svg" xml:space="preserve" width="20000mm" height="19000mm" version="1.1" style="shape-rendering:geometricPrecision; text-rendering:geometricPrecision; image-rendering:optimizeQuality; fill-rule:evenodd; clip-rule:evenodd"
viewBox="0 0 2000000 1900000"
 xmlns:xlink="http://www.w3.org/1999/xlink"
 xmlns:xodm="http://www.corel.com/coreldraw/odm/2003">
 <defs>
  <style type="text/css">
   <![CDATA[
    .fil1 {fill:#0089F6}
    .fil0 {fill:white}
   ]]>
  </style>
 </defs>
 <g id="Camada_x0020_1">
  <metadata id="CorelCorpID_0Corel-Layer"/>
  <path class="fil0" d="M30294.96 1662008.97l521623.28 0c18764.58,-50414.66 0,0 94337.41,-241390l-307983.62 3.27c-13921.05,45.88 -36067.59,4512.55 -36067.59,-8327.07l0 -338503.1 471683.8 0c1776.18,-7625.78 6986.74,-20147.51 10290.04,-28553.23 4079.97,-10388.36 6160.92,-17830.62 10303.15,-28540.13l52715.17 -144280.17c3998.05,-10329.37 8946.44,-19878.79 9929.57,-31692.68l-554921.73 0 0 -346823.62 685326.73 0 42798.71 -120901.46c4912.35,-12797.01 42202.29,-111096.42 43214.91,-123264.23l-1043249.83 0 0 1412272.42z"/>
  <path class="fil0" d="M1076317.2 1073792.07l638159.66 0 0 346826.9 -766988.38 163.85c-87589.9,241226.15 -76637.88,209694.05 -87589.9,241226.15l1112615.87 0 0 -821283.11 -699198.63 0 0 -302432.24 -99485.71 266764.46c-8608.9,23060.84 -15969.23,43781.84 -24335.62,67226.1l-61055.35 166462.75c-4463.39,13236.14 -9211.89,22556.17 -12121.94,35045.14z"/>
  <path class="fil0" d="M1375973.76 251158.8c-86010.35,242743.44 1425.53,-1422.25 -86010.35,242743.44l682551.04 0 779.94 -241275.3c-390205.65,-1894.16 30263.87,-2890.39 -595895.1,-2890.39l-1425.53 1422.25z"/>
  <path class="fil1" d="M1375973.77 251158.8c87363.78,-233066.21 -1425.53,1422.25 87363.78,-233066.21l-305207.94 0c-83237.93,235841.9 0,0 -83237.93,235841.9l301082.09 -2775.69z"/>
  <path class="fil1" d="M474231.69 1889527.07l305204.65 0c80462.24,-227518.1 0,0 80462.24,-227518.1l-307980.34 0c-77686.55,227518.1 0,0 -77686.55,227518.1z"/>
 </g>
</svg>
